<svg width="110" height="106" viewBox="0 0 110 106" fill="none" xmlns="http://www.w3.org/2000/svg">
<path d="M0 94.5L54.5 0L60 9.5L38.5 47L48 55L67 21.5L72.5 31L36.5 94.5H25L43.5 63.5L33.5 56L11.5 94.5H0Z" fill="white"/>
<path d="M75 36L60 63.5H71L75 56L83 69.5H56L42.5 94.5H109.5L104 85H59L62 78.5H100L75 36Z" fill="white"/>
<path d="M94.7227 105V99.3633H95.2578V105H94.7227ZM96.707 105V99.3633H97.2344L100.52 104.043H100.57V99.3633H101.098V105H100.582L97.2852 100.316H97.2344V105H96.707ZM104.801 105.117C103.27 105.117 102.316 103.992 102.316 102.188V102.18C102.316 100.375 103.27 99.2461 104.797 99.2461C105.957 99.2461 106.895 100.016 107.047 101.082L107.043 101.086H106.508L106.504 101.082C106.34 100.289 105.645 99.7422 104.797 99.7422C103.617 99.7422 102.863 100.691 102.863 102.18V102.188C102.863 103.676 103.613 104.621 104.801 104.621C105.672 104.621 106.348 104.137 106.504 103.398L106.508 103.395L107.043 103.391L107.047 103.398C106.887 104.43 105.996 105.117 104.801 105.117ZM108.668 105.031C108.438 105.031 108.254 104.848 108.254 104.621C108.254 104.391 108.438 104.207 108.668 104.207C108.898 104.207 109.078 104.391 109.078 104.621C109.078 104.848 108.898 105.031 108.668 105.031Z" fill="white"/>
</svg>
